<?xml version="1.0" encoding="UTF-8"?>
<svg id="Layer_2" xmlns="http://www.w3.org/2000/svg" xmlns:xlink="http://www.w3.org/1999/xlink" viewBox="0 0 203.48 74.58">
  <defs>
    <style>
      .cls-1 {
        fill: #8ac440;
      }

      .cls-2 {
        fill: #124b84;
      }

      .cls-3 {
        fill: #59595c;
      }

      .cls-4 {
        fill: url(#linear-gradient);
      }
    </style>
    <linearGradient id="linear-gradient" x1="82.41" y1="19.71" x2="114.69" y2="19.71" gradientUnits="userSpaceOnUse">
      <stop offset="0" stop-color="#15b2e7"/>
      <stop offset="1" stop-color="#074f8c"/>
    </linearGradient>
  </defs>
  <g id="Layer_1-2" data-name="Layer_1">
    <g>
      <path class="cls-2" d="M78.76,19.71c0-7.21,3.32-13.64,8.51-17.85-2.52-1.18-5.32-1.85-8.28-1.85-10.88,0-19.71,8.82-19.71,19.71s8.82,19.71,19.71,19.71c2.97,0,5.76-.68,8.28-1.85-5.19-4.21-8.51-10.64-8.51-17.85"/>
      <polygon class="cls-3" points="15.75 56.41 12 56.41 3 65.59 3 56.41 0 56.41 0 74.48 3 74.48 3 69.72 6 66.6 12.44 74.48 16.16 74.48 8.14 64.35 15.75 56.41"/>
      <rect class="cls-3" x="22.63" y="56.41" width="3" height="18.07"/>
      <polygon class="cls-3" points="32.34 59.24 38.21 59.24 38.21 74.48 41.21 74.48 41.21 59.24 47.1 59.24 47.1 56.41 32.34 56.41 32.34 59.24"/>
      <path class="cls-3" d="M60.84,56.36c-5.56,0-9.91,3.99-9.91,9.09s4.35,9.14,9.91,9.14,9.89-4.01,9.89-9.14-4.34-9.09-9.89-9.09M60.84,71.75c-3.8,0-6.89-2.83-6.89-6.31s3.09-6.28,6.89-6.28,6.83,2.82,6.83,6.28-3.07,6.31-6.83,6.31"/>
      <path class="cls-3" d="M84.59,63.9c-2.53-.73-4.07-1.29-4.07-2.84,0-1.33,1.74-1.8,3.36-1.8s3.36.51,4.71,1.37l.45.29,1.28-2.69-.35-.22c-1.63-1.04-3.86-1.67-5.96-1.67-4,0-6.69,1.97-6.69,4.9,0,3.66,3.32,4.6,5.99,5.36,2.57.73,4.13,1.28,4.12,2.89,0,1.6-1.94,2.17-3.75,2.17-1.96,0-4.14-.88-5.67-2.3l-.45-.42-1.38,2.63.27.25c1.89,1.72,4.59,2.74,7.21,2.74,4.17,0,6.98-2.08,6.98-5.17.02-3.73-3.34-4.71-6.04-5.49"/>
      <polygon class="cls-3" points="111.46 64.14 101.55 64.14 101.55 56.41 98.55 56.41 98.55 74.48 101.55 74.48 101.55 66.95 111.46 66.95 111.46 74.48 114.46 74.48 114.46 56.41 111.46 56.41 111.46 64.14"/>
      <rect class="cls-3" x="123.62" y="56.41" width="3" height="18.07"/>
      <polygon class="cls-3" points="148.72 69.29 138.61 56.41 135.78 56.41 135.78 74.48 138.78 74.48 138.78 61.62 148.88 74.48 151.69 74.48 151.69 56.41 148.72 56.41 148.72 69.29"/>
      <path class="cls-3" d="M168.63,56.41h-7.75v18.07h7.67c5.59,0,9.81-3.89,9.81-9.04s-4.18-9.04-9.73-9.04M168.65,71.68h-4.78v-12.44h4.7c3.85,0,6.76,2.68,6.76,6.23s-2.87,6.21-6.68,6.21"/>
      <path class="cls-3" d="M193.59,56.36c-5.56,0-9.91,3.99-9.91,9.09s4.35,9.14,9.91,9.14,9.89-4.01,9.89-9.14-4.34-9.09-9.89-9.09M193.59,71.75c-3.8,0-6.89-2.83-6.89-6.31s3.09-6.28,6.89-6.28,6.83,2.82,6.83,6.28-3.07,6.31-6.83,6.31"/>
      <path class="cls-1" d="M131.08,1.17l-7.39,9.37c-2.47,3.02-5.19,5.54-7.99,7.51-1.01.66-2.12,1.3-3.33,1.9.5.29.98.58,1.44.88,2.8,1.97,5.53,4.49,7.99,7.51l7.81,9.9c7.99-2.51,13.79-9.98,13.79-18.8,0-8.27-5.1-15.34-12.33-18.27"/>
      <path class="cls-4" d="M82.41,19.71c0,10.88,8.82,19.71,19.71,19.71,4.36,0,8.38-1.43,11.64-3.83l-5.71-7.25c-2.47-3.02-5.2-5.54-7.99-7.51-.46-.3-.94-.59-1.44-.88,1.21-.6,2.32-1.25,3.33-1.9,2.8-1.97,5.53-4.49,7.99-7.51l4.74-6.01C111.27,1.7,106.9,0,102.12,0,91.24,0,82.41,8.82,82.41,19.71"/>
    </g>
  </g>
</svg>